<svg data-v-fde0c5aa="" xmlns="http://www.w3.org/2000/svg" viewBox="0 0 300 300" class="iconLeft"><!----><defs data-v-fde0c5aa=""><!----></defs><rect data-v-fde0c5aa="" fill="#156EAC" x="0" y="0" width="300px" height="300px" class="logo-background-square"></rect><defs data-v-fde0c5aa=""><!----></defs><g data-v-fde0c5aa="" id="993372fe-3f7d-4735-9045-f3abdb4a7337" fill="#ffffff" transform="matrix(1.4166337624263035,0,0,1.4166337624263035,78.24588868600746,136.1311555198868)"><path d="M10.14 15.82L5.56 11.24L0.98 15.82L0.98 4.07C0.98 3.92 1.11 3.79 1.25 3.79L2.87 3.79C3.02 3.79 3.14 3.92 3.14 4.07L3.14 10.61L5.56 8.19L7.98 10.61L7.98 4.07C7.98 3.92 8.11 3.79 8.26 3.79L9.87 3.79C10.02 3.79 10.14 3.92 10.14 4.07ZM20.16 15.54C20.16 15.69 20.03 15.82 19.89 15.82L12.24 15.82C12.08 15.82 11.96 15.69 11.96 15.54L11.96 4.06C11.96 3.91 12.08 3.78 12.24 3.78L19.61 3.78C19.77 3.78 19.89 3.91 19.89 4.06L19.89 5.70C19.89 5.85 19.77 5.96 19.61 5.96L14.14 5.96L14.14 8.71L19.33 8.71C19.49 8.71 19.61 8.82 19.61 8.97L19.61 10.61C19.61 10.77 19.49 10.89 19.33 10.89L14.14 10.89L14.14 13.62L19.89 13.62C20.03 13.62 20.16 13.75 20.16 13.90ZM29.62 12.28C29.62 12.38 29.61 13.22 29.08 14.07C28.59 14.88 27.58 15.83 25.52 15.83C23.90 15.83 22.62 15.15 21.94 13.93C21.62 13.34 21.49 12.77 21.45 12.40C21.45 12.38 21.43 12.35 21.43 12.32C21.43 12.18 21.55 12.05 21.69 12.04L23.41 12.04C23.52 12.05 23.60 12.12 23.63 12.24L23.63 12.25C23.63 12.26 23.65 12.28 23.65 12.29C23.67 12.46 23.74 12.70 23.88 12.91C24.18 13.40 24.72 13.65 25.52 13.65C26.38 13.65 26.92 13.41 27.22 12.94C27.41 12.61 27.44 12.26 27.44 12.26C27.44 11.87 27.34 11.41 26.61 11.12C26.08 10.89 25.52 10.88 25.52 10.88C25.42 10.88 24.53 10.86 23.60 10.50C22.19 9.93 21.42 8.81 21.42 7.34C21.42 7.20 21.45 5.89 22.47 4.87C23.20 4.13 24.23 3.75 25.52 3.75C26.35 3.75 27.54 3.93 28.45 4.86C29.33 5.75 29.55 6.89 29.61 7.45L29.61 7.48C29.61 7.64 29.50 7.77 29.34 7.77L27.65 7.77C27.54 7.76 27.44 7.66 27.41 7.55L27.41 7.50C27.37 7.31 27.30 7.03 27.16 6.75C26.96 6.40 26.59 5.94 25.52 5.94C24.84 5.94 24.33 6.09 24.01 6.41C23.63 6.79 23.60 7.34 23.60 7.34C23.60 7.73 23.70 8.18 24.43 8.47C24.96 8.68 25.52 8.69 25.52 8.69C25.62 8.69 26.52 8.71 27.44 9.09C28.85 9.67 29.62 10.81 29.62 12.28ZM38.46 5.68C38.46 5.84 38.30 5.96 38.12 5.96L35.45 5.96L35.45 15.47C35.45 15.65 35.32 15.81 35.18 15.81L33.53 15.81C33.39 15.81 33.26 15.65 33.26 15.47L33.26 5.96L30.53 5.96C30.38 5.96 30.25 5.84 30.25 5.68L30.25 4.05C30.25 3.89 30.38 3.78 30.53 3.78L38.12 3.78C38.30 3.78 38.46 3.89 38.46 4.05ZM48.13 15.53C48.13 15.68 48.01 15.81 47.87 15.81L46.21 15.81C46.07 15.81 45.95 15.68 45.95 15.53L45.95 10.88L42.11 10.88L42.11 15.53C42.11 15.68 42.00 15.81 41.85 15.81L40.21 15.81C40.05 15.81 39.93 15.68 39.93 15.53L39.93 4.10C39.93 3.92 40.05 3.77 40.21 3.77L41.85 3.77C42.00 3.77 42.11 3.92 42.11 4.10L42.11 8.69L45.95 8.69L45.95 4.10C45.95 3.92 46.07 3.77 46.21 3.77L47.87 3.77C48.01 3.77 48.13 3.92 48.13 4.10ZM55.34 15.82C52.02 15.82 49.32 13.12 49.32 9.80C49.32 6.48 52.02 3.78 55.34 3.78C58.66 3.78 61.36 6.48 61.36 9.80C61.36 13.12 58.66 15.82 55.34 15.82ZM55.34 5.96C53.23 5.96 51.51 7.69 51.51 9.80C51.51 11.91 53.23 13.62 55.34 13.62C57.46 13.62 59.16 11.91 59.16 9.80C59.16 7.69 57.46 5.96 55.34 5.96ZM70.97 15.37L68.74 11.42L68.43 10.89L68.36 10.77C70.39 10.32 71.44 8.82 71.44 7.35C71.44 6.38 70.99 5.46 70.22 4.82C69.44 4.14 68.33 3.79 67.06 3.79L62.97 3.79C62.82 3.79 62.69 3.92 62.69 4.06L62.69 5.17L62.83 5.42L62.83 5.43L64.69 8.71L62.69 8.71L62.69 15.54C62.69 15.69 62.82 15.82 62.97 15.82L64.61 15.82C64.75 15.82 64.88 15.69 64.88 15.54L64.88 10.89L65.93 10.89L66.22 11.42L68.61 15.65L68.64 15.69C68.68 15.76 68.77 15.82 68.87 15.82L70.74 15.82C70.90 15.82 71.01 15.69 71.01 15.53C71.01 15.48 71.01 15.44 70.98 15.40ZM66.91 8.19L65.66 5.98L67.06 5.98C68.57 5.98 69.24 6.69 69.24 7.35C69.24 7.91 68.74 8.53 67.61 8.68C67.48 8.69 67.34 8.71 67.20 8.71ZM80.51 4.79C79.69 4.13 78.55 3.78 77.22 3.78L73.40 3.78C73.25 3.78 73.12 3.91 73.12 4.06L73.12 5.18L75.28 8.69L73.12 8.69L73.12 15.53C73.12 15.68 73.25 15.81 73.40 15.81L75.04 15.81C75.19 15.81 75.31 15.68 75.31 15.53L75.31 10.89L77.25 10.89C78.57 10.88 79.70 10.54 80.51 9.88C81.34 9.23 81.80 8.30 81.80 7.34C81.80 6.36 81.34 5.43 80.51 4.79ZM76.17 5.96L77.22 5.96C78.79 5.96 79.62 6.65 79.62 7.34C79.62 7.92 79.00 8.51 77.81 8.67ZM90.85 15.54C90.85 15.69 90.72 15.82 90.58 15.82L82.92 15.82C82.77 15.82 82.64 15.69 82.64 15.54L82.64 4.06C82.64 3.91 82.77 3.78 82.92 3.78L90.30 3.78C90.45 3.78 90.58 3.91 90.58 4.06L90.58 5.70C90.58 5.85 90.45 5.96 90.30 5.96L84.83 5.96L84.83 8.71L90.02 8.71C90.17 8.71 90.30 8.82 90.30 8.97L90.30 10.61C90.30 10.77 90.17 10.89 90.02 10.89L84.83 10.89L84.83 13.62L90.58 13.62C90.72 13.62 90.85 13.75 90.85 13.90ZM107.98 15.82L103.40 11.24L98.83 15.82L98.83 4.07C98.83 3.92 98.95 3.79 99.09 3.79L100.72 3.79C100.87 3.79 100.98 3.92 100.98 4.07L100.98 10.61L103.40 8.19L105.83 10.61L105.83 4.07C105.83 3.92 105.95 3.79 106.11 3.79L107.72 3.79C107.87 3.79 107.98 3.92 107.98 4.07ZM118.01 15.54C118.01 15.69 117.88 15.82 117.74 15.82L110.08 15.82C109.93 15.82 109.80 15.69 109.80 15.54L109.80 4.06C109.80 3.91 109.93 3.78 110.08 3.78L117.46 3.78C117.61 3.78 117.74 3.91 117.74 4.06L117.74 5.70C117.74 5.85 117.61 5.96 117.46 5.96L111.99 5.96L111.99 8.71L117.18 8.71C117.33 8.71 117.46 8.82 117.46 8.97L117.46 10.61C117.46 10.77 117.33 10.89 117.18 10.89L111.99 10.89L111.99 13.62L117.74 13.62C117.88 13.62 118.01 13.75 118.01 13.90ZM127.16 9.80C127.92 9.13 128.30 8.23 128.30 7.34C128.30 6.38 127.86 5.46 127.09 4.80C126.29 4.13 125.20 3.78 123.93 3.78L119.83 3.78C119.67 3.78 119.55 3.91 119.55 4.07L119.55 5.21L121.88 8.71L119.55 8.71L119.55 15.53C119.55 15.68 119.67 15.82 119.83 15.82L123.93 15.82C126.80 15.82 128.30 14.03 128.30 12.26C128.30 11.33 127.89 10.44 127.16 9.80ZM122.68 5.96L123.93 5.96C125.43 5.96 126.11 6.68 126.11 7.34C126.11 7.91 125.59 8.51 124.49 8.67ZM121.73 13.62L121.73 10.89L123.93 10.89C125.43 10.89 126.11 11.61 126.11 12.26C126.11 12.92 125.43 13.62 123.93 13.62Z"></path></g><defs data-v-fde0c5aa=""><!----></defs><g data-v-fde0c5aa="" id="322391e7-8bfe-4c67-82a5-044f5406448e" stroke="none" fill="#F6575E" transform="matrix(0.3716432733610413,0,0,0.3716432733610413,36.59314618114925,133.36896209938683)"><path d="M77.546 34.59H12.455a3.288 3.288 0 0 0-3.288 3.288v14.246a3.288 3.288 0 0 0 3.288 3.287h65.091a3.287 3.287 0 0 0 3.287-3.287V37.877a3.287 3.287 0 0 0-3.287-3.287zM57.491 48.178H16.508v-6.355h40.983v6.355zm14.738-.219a2.958 2.958 0 1 1 0-5.917 2.958 2.958 0 0 1 0 5.917zm5.317 10.506H12.455a3.288 3.288 0 0 0-3.288 3.287v14.246a3.288 3.288 0 0 0 3.288 3.287h65.091a3.287 3.287 0 0 0 3.287-3.287V61.752a3.287 3.287 0 0 0-3.287-3.287zM57.491 72.053H16.508v-6.355h40.983v6.355zm14.738-.219a2.958 2.958 0 1 1 0-5.917 2.958 2.958 0 0 1 0 5.917zm5.317-61.619H12.455a3.288 3.288 0 0 0-3.288 3.288v14.246a3.288 3.288 0 0 0 3.288 3.287h65.091a3.287 3.287 0 0 0 3.287-3.287V13.502a3.287 3.287 0 0 0-3.287-3.287zM57.491 23.803H16.508v-6.355h40.983v6.355zm14.738-.219a2.958 2.958 0 1 1 0-5.917 2.958 2.958 0 0 1 0 5.917z"></path></g><!----></svg>